<svg width="256" height="256" xmlns="http://www.w3.org/2000/svg"><g transform="translate(1 1)" fill="none" fill-rule="evenodd"><path d="M0 0h253.83v253.83H0z"/><path d="M195.208 93.657V61.758c0-33.732-30.45-61.598-67.87-61.598-23.478 0-44.023 10.633-56.129 27.133-7.337 9.9-11.74 21.632-11.74 34.465v31.899c-11.005 4.033-19.076 14.666-19.076 27.132v46.198c0 48.032 38.887 86.897 86.946 86.897s86.946-38.865 86.946-86.897V120.79c.367-12.466-7.704-23.1-19.077-27.132zm-67.87 105.596c-14.674 0-26.413-11.733-26.413-26.4 0-14.665 11.74-26.398 26.414-26.398 14.674 0 26.414 11.733 26.414 26.399.367 14.666-11.74 26.399-26.414 26.399zm42.924-107.43H84.416V61.391c0-20.166 19.444-36.665 42.923-36.665 23.479 0 42.923 16.5 42.923 36.665v30.432z" fill="#333" fill-rule="nonzero"/><circle fill="#333" cx="125.745" cy="179.553" r="41.525"/><path d="M116.227 174.713h41.403v5.952c0 1.667 1.19 2.857 2.855 2.857h7.377c1.665 0 2.855-1.19 2.855-2.857v-5.952h11.422l8.09-6.666a4.773 4.773 0 0 0 0-7.143l-8.09-6.666H116.465c-4.045-10.238-14.039-17.38-25.46-17.38-15.467 0-27.84 12.38-27.84 27.617 0 15.238 12.373 27.618 27.602 27.618 11.421 0 21.415-7.142 25.46-17.38zm-33.55-10.238c0-4.523 3.569-8.094 8.09-8.094s8.09 3.57 8.09 8.094c0 4.524-3.569 8.095-8.09 8.095s-8.09-3.571-8.09-8.095z" fill="#FFED00" fill-rule="nonzero"/></g></svg>