<svg width="150" height="218" xmlns="http://www.w3.org/2000/svg"><g transform="translate(-34)" fill="none" fill-rule="evenodd"><path d="M0 0h217v217H0z"/><path d="M166.884 80.067v-27.27c0-28.838-26.031-52.66-58.022-52.66-20.072 0-37.635 9.09-47.985 23.196-6.273 8.463-10.036 18.493-10.036 29.464v27.27c-9.41 3.448-16.31 12.538-16.31 23.196v39.495c0 41.062 33.246 74.288 74.331 74.288 41.086 0 74.33-33.226 74.33-74.288v-39.495c.314-10.658-6.586-19.748-16.308-23.196zm-58.022 90.274c-12.545 0-22.581-10.03-22.581-22.568 0-12.538 10.036-22.569 22.581-22.569s22.582 10.03 22.582 22.569c.313 12.538-10.037 22.568-22.582 22.568zm36.695-91.84h-73.39V52.483c0-17.24 16.623-31.346 36.695-31.346 20.073 0 36.695 14.106 36.695 31.346V78.5z" fill="#333" fill-rule="nonzero"/><circle fill="#333" cx="107.5" cy="153.5" r="35.5"/><path d="M99.363 149.362h35.395v5.089c0 1.425 1.017 2.442 2.441 2.442h6.306c1.424 0 2.441-1.017 2.441-2.442v-5.089h9.765l6.916-5.699a4.08 4.08 0 0 0 0-6.106l-6.916-5.699H99.566C96.108 123.106 87.564 117 77.8 117 64.578 117 54 127.584 54 140.61c0 13.027 10.578 23.61 23.597 23.61 9.764 0 18.308-6.105 21.766-14.858zM70.68 140.61c0-3.867 3.05-6.92 6.916-6.92 3.865 0 6.916 3.053 6.916 6.92 0 3.868-3.051 6.92-6.916 6.92s-6.916-3.052-6.916-6.92z" fill="#FFED00" fill-rule="nonzero"/></g></svg>